<svg xmlns="http://www.w3.org/2000/svg" viewBox="0 0 500 500">
  <defs>
    <style>
      .cls-1 {
        fill: #f6b84b;
      }

      .cls-2 {
        fill: #5c4734;
      }

      .cls-3 {
        fill: #f6c26e;
      }

      .cls-4 {
        fill: #fbe1b3;
      }
    </style>
  </defs>
  <g>
    <rect class="cls-1" x="456.52" y="260.86" width="21.73" height="21.73"/>
    <polygon class="cls-1" points="369.61 87.02 347.88 87.02 347.88 65.29 347.88 43.57 326.14 43.57 326.14 65.29 304.42 65.29 304.42 43.57 282.69 43.57 282.69 65.29 260.95 65.29 239.23 65.29 217.5 65.29 217.5 43.57 195.76 43.57 195.76 65.29 174.04 65.29 174.04 43.57 152.3 43.57 152.3 65.29 152.3 87.02 130.57 87.02 130.57 108.76 108.85 108.76 108.85 130.48 108.85 152.21 108.85 173.95 108.85 195.67 130.57 195.67 152.3 195.67 174.04 195.67 195.76 195.67 195.76 173.95 195.76 152.21 217.5 152.21 217.5 173.95 239.23 173.95 260.95 173.95 282.69 173.95 282.69 152.21 304.42 152.21 304.42 173.95 304.42 195.67 326.14 195.67 347.88 195.67 369.61 195.67 391.33 195.67 391.33 173.95 391.33 152.21 391.33 130.48 391.33 108.76 369.61 108.76 369.61 87.02"/>
    <rect class="cls-1" x="304.42" y="21.83" width="21.72" height="21.73"/>
    <rect class="cls-1" x="174.04" y="21.83" width="21.72" height="21.73"/>
  </g>
  <g>
    <polygon class="cls-3" points="413.07 239.14 413.07 260.86 391.33 260.86 391.33 282.6 413.07 282.6 413.07 304.33 434.8 304.33 434.8 282.6 434.8 260.86 434.8 239.14 413.07 239.14"/>
    <polygon class="cls-3" points="369.61 239.14 347.88 239.14 347.88 260.86 369.61 260.86 391.33 260.86 391.33 239.14 369.61 239.14"/>
    <polygon class="cls-3" points="326.14 434.71 326.14 456.43 304.42 456.43 282.69 456.43 260.95 456.43 260.95 478.17 282.69 478.17 304.42 478.17 326.14 478.17 347.88 478.17 347.88 456.43 369.61 456.43 369.61 434.71 347.88 434.71 326.14 434.71"/>
    <polygon class="cls-3" points="304.42 260.86 282.69 260.86 260.95 260.86 239.23 260.86 217.5 260.86 195.76 260.86 174.04 260.86 152.3 260.86 152.3 282.6 174.04 282.6 174.04 304.33 195.76 304.33 217.5 304.33 239.23 304.33 260.95 304.33 282.69 304.33 304.42 304.33 326.14 304.33 326.14 282.6 347.88 282.6 347.88 260.86 326.14 260.86 304.42 260.86"/>
    <polygon class="cls-3" points="195.76 456.43 174.04 456.43 174.04 434.71 152.3 434.71 130.57 434.71 130.57 456.43 152.3 456.43 152.3 478.17 174.04 478.17 195.76 478.17 217.5 478.17 239.23 478.17 239.23 456.43 217.5 456.43 195.76 456.43"/>
    <polygon class="cls-3" points="130.57 239.14 108.85 239.14 87.11 239.14 87.11 260.86 108.85 260.86 130.57 260.86 152.3 260.86 152.3 239.14 130.57 239.14"/>
  </g>
  <g>
    <polygon class="cls-4" points="456.52 282.6 456.52 304.33 456.52 326.05 434.8 326.05 434.8 347.79 434.8 369.52 456.52 369.52 456.52 347.79 478.26 347.79 478.26 326.05 478.26 304.33 478.26 282.6 456.52 282.6"/>
    <polygon class="cls-4" points="413.07 347.79 413.07 326.05 434.8 326.05 434.8 304.33 413.07 304.33 413.07 282.6 391.33 282.6 391.33 260.86 369.61 260.86 347.88 260.86 347.88 282.6 326.14 282.6 326.14 304.33 304.42 304.33 282.69 304.33 260.95 304.33 239.23 304.33 217.5 304.33 195.76 304.33 174.04 304.33 174.04 282.6 152.3 282.6 152.3 260.86 130.57 260.86 108.85 260.86 87.11 260.86 87.11 239.14 65.38 239.14 65.38 260.86 65.38 282.6 65.38 304.33 65.38 326.05 87.11 326.05 87.11 347.79 87.11 369.52 87.11 391.24 87.11 412.98 108.85 412.98 108.85 434.71 108.85 456.43 130.57 456.43 130.57 434.71 152.3 434.71 174.04 434.71 174.04 456.43 195.76 456.43 217.5 456.43 217.5 434.71 239.23 434.71 239.23 456.43 260.95 456.43 260.95 434.71 282.69 434.71 282.69 456.43 304.42 456.43 326.14 456.43 326.14 434.71 347.88 434.71 369.61 434.71 369.61 456.43 391.33 456.43 391.33 434.71 391.33 412.98 413.07 412.98 413.07 391.24 434.8 391.24 434.8 369.52 413.07 369.52 413.07 347.79"/>
    <rect class="cls-4" x="304.42" y="43.57" width="21.72" height="21.72"/>
    <rect class="cls-4" x="174.04" y="43.57" width="21.72" height="21.72"/>
    <polygon class="cls-4" points="130.57 239.14 152.3 239.14 152.3 260.86 174.04 260.86 195.76 260.86 217.5 260.86 239.23 260.86 260.95 260.86 282.69 260.86 304.42 260.86 326.14 260.86 347.88 260.86 347.88 239.14 369.61 239.14 391.33 239.14 391.33 260.86 413.07 260.86 413.07 239.14 413.07 217.4 413.07 195.67 413.07 173.95 413.07 152.21 391.33 152.21 391.33 173.95 391.33 195.67 369.61 195.67 347.88 195.67 326.14 195.67 304.42 195.67 304.42 173.95 282.69 173.95 260.95 173.95 260.95 195.67 282.69 195.67 282.69 217.4 260.95 217.4 260.95 195.67 239.23 195.67 239.23 217.4 217.5 217.4 217.5 195.67 239.23 195.67 239.23 173.95 217.5 173.95 195.76 173.95 195.76 195.67 174.04 195.67 152.3 195.67 130.57 195.67 108.85 195.67 108.85 173.95 108.85 152.21 87.11 152.21 87.11 173.95 87.11 195.67 87.11 217.4 87.11 239.14 108.85 239.14 130.57 239.14"/>
  </g>
  <g>
    <polygon class="cls-2" points="478.26 260.86 478.26 282.6 478.26 304.33 478.26 326.05 478.26 347.79 499.99 347.79 499.99 326.05 499.99 304.33 499.99 282.6 499.99 260.86 478.26 260.86"/>
    <rect class="cls-2" x="456.52" y="347.79" width="21.73" height="21.73"/>
    <rect class="cls-2" x="434.8" y="369.52" width="21.72" height="21.72"/>
    <polygon class="cls-2" points="434.8 282.6 434.8 304.33 434.8 326.05 456.52 326.05 456.52 304.33 456.52 282.6 456.52 260.86 478.26 260.86 478.26 239.14 456.52 239.14 434.8 239.14 434.8 260.86 434.8 282.6"/>
    <rect class="cls-2" x="413.07" y="391.24" width="21.73" height="21.73"/>
    <polygon class="cls-2" points="413.07 347.79 413.07 369.52 434.8 369.52 434.8 347.79 434.8 326.05 413.07 326.05 413.07 347.79"/>
    <polygon class="cls-2" points="413.07 195.67 413.07 217.4 413.07 239.14 434.8 239.14 434.8 217.4 434.8 195.67 434.8 173.95 434.8 152.21 413.07 152.21 413.07 173.95 413.07 195.67"/>
    <polygon class="cls-2" points="391.33 434.71 391.33 456.43 413.07 456.43 413.07 434.71 413.07 412.98 391.33 412.98 391.33 434.71"/>
    <polygon class="cls-2" points="391.33 152.21 413.07 152.21 413.07 130.48 413.07 108.76 391.33 108.76 391.33 130.48 391.33 152.21"/>
    <rect class="cls-2" x="369.61" y="87.02" width="21.72" height="21.73"/>
    <polygon class="cls-2" points="347.88 456.43 347.88 478.17 369.61 478.17 391.33 478.17 391.33 456.43 369.61 456.43 347.88 456.43"/>
    <polygon class="cls-2" points="347.88 87.02 369.61 87.02 369.61 65.29 369.61 43.57 347.88 43.57 347.88 65.29 347.88 87.02"/>
    <rect class="cls-2" x="326.14" y="21.83" width="21.73" height="21.73"/>
    <polygon class="cls-2" points="304.42 478.17 282.69 478.17 260.95 478.17 260.95 456.43 239.23 456.43 239.23 478.17 217.5 478.17 195.76 478.17 174.04 478.17 152.3 478.17 152.3 499.9 174.04 499.9 195.76 499.9 217.5 499.9 239.23 499.9 260.95 499.9 282.69 499.9 304.42 499.9 326.14 499.9 347.88 499.9 347.88 478.17 326.14 478.17 304.42 478.17"/>
    <rect class="cls-2" x="304.42" y=".1" width="21.72" height="21.73"/>
    <rect class="cls-2" x="282.69" y="152.21" width="21.73" height="21.73"/>
    <rect class="cls-2" x="282.69" y="21.83" width="21.73" height="21.73"/>
    <rect class="cls-2" x="260.95" y="434.71" width="21.73" height="21.72"/>
    <rect class="cls-2" x="260.95" y="195.67" width="21.73" height="21.73"/>
    <rect class="cls-2" x="239.23" y="173.95" width="21.72" height="21.72"/>
    <rect class="cls-2" x="217.5" y="434.71" width="21.73" height="21.72"/>
    <rect class="cls-2" x="217.5" y="195.67" width="21.73" height="21.73"/>
    <polygon class="cls-2" points="239.23 65.29 260.95 65.29 282.69 65.29 282.69 43.57 260.95 43.57 239.23 43.57 217.5 43.57 217.5 65.29 239.23 65.29"/>
    <rect class="cls-2" x="195.76" y="152.21" width="21.73" height="21.73"/>
    <rect class="cls-2" x="195.76" y="21.83" width="21.73" height="21.73"/>
    <rect class="cls-2" x="174.04" y=".1" width="21.72" height="21.73"/>
    <rect class="cls-2" x="152.3" y="21.83" width="21.73" height="21.73"/>
    <polygon class="cls-2" points="130.57 456.43 108.85 456.43 108.85 478.17 130.57 478.17 152.3 478.17 152.3 456.43 130.57 456.43"/>
    <polygon class="cls-2" points="152.3 65.29 152.3 43.57 130.57 43.57 130.57 65.29 130.57 87.02 152.3 87.02 152.3 65.29"/>
    <rect class="cls-2" x="108.85" y="87.02" width="21.72" height="21.73"/>
    <polygon class="cls-2" points="108.85 412.98 87.11 412.98 87.11 434.71 87.11 456.43 108.85 456.43 108.85 434.71 108.85 412.98"/>
    <polygon class="cls-2" points="108.85 130.48 108.85 108.76 87.11 108.76 87.11 130.48 87.11 152.21 108.85 152.21 108.85 130.48"/>
    <polygon class="cls-2" points="87.11 369.52 87.11 347.79 87.11 326.05 65.38 326.05 65.38 347.79 65.38 369.52 65.38 391.24 65.38 412.98 87.11 412.98 87.11 391.24 87.11 369.52"/>
    <polygon class="cls-2" points="87.11 217.4 87.11 195.67 87.11 173.95 87.11 152.21 65.38 152.21 65.38 173.95 65.38 195.67 65.38 217.4 65.38 239.14 87.11 239.14 87.11 217.4"/>
    <polygon class="cls-2" points="65.38 282.6 65.38 260.86 65.38 239.14 43.66 239.14 43.66 260.86 43.66 282.6 43.66 304.33 43.66 326.05 65.38 326.05 65.38 304.33 65.38 282.6"/>
  </g>
</svg>
